<svg width="1920" height="685" viewBox="0 0 1920 685" fill="none" xmlns="http://www.w3.org/2000/svg">
<rect width="1920" height="685" fill="white"/>
<path opacity="0.3" d="M560.624 339.357C569.826 327.274 567.49 310.019 555.407 300.818L274.845 87.1644C262.762 77.9629 245.507 80.2989 236.306 92.382L20.1644 376.21C10.9629 388.294 13.2989 405.548 25.382 414.75L305.944 628.403C318.027 637.605 335.282 635.269 344.483 623.186L560.624 339.357Z" stroke="#FC0C70" stroke-width="5"/>
<path opacity="0.3" d="M729.018 509.138C743.699 505.249 752.448 490.194 748.559 475.513L658.258 134.619C654.369 119.938 639.315 111.189 624.634 115.078L279.771 206.43C265.089 210.319 256.34 225.373 260.229 240.055L350.53 580.949C354.419 595.63 369.473 604.379 384.155 600.49L729.018 509.138Z" stroke="#FC0C70" stroke-width="5"/>
<path opacity="0.15" d="M161.447 139.598C154.244 126.226 137.566 121.225 124.194 128.428L27.5978 180.458C14.2263 187.66 9.22526 204.339 16.4276 217.71L69.2589 315.794C76.4612 329.165 93.1396 334.166 106.511 326.964L203.108 274.933C216.479 267.731 221.48 251.053 214.278 237.681L161.447 139.598Z" stroke="#FC0C70" stroke-width="5"/>
</svg>
